# xmcd
#
# Track frame offsets: 
#        150
#        15933
#        31643
#        48174
#        62900
#        77839
#        91770
#        109776
#        127754
#        150820
#        164730
#        176346
#        190653
#        205528
#        219893
#
# Disc length: 3100 seconds
#
# Revision: 3
# Processed by: cddbd v1.4PL0 Copyright (c) Steve Scherf et al.
# Submitted via: ExactAudioCopy v0.90b4
#
DISCID=a20c1a0f
DTITLE=Sarah Brightman - Encore
DYEAR=2002
DGENRE=Ballad
TTITLE0=Whistle down the wind
TTITLE1=Away from you
TTITLE2=Guardami
TTITLE3=Think of me
TTITLE4=One more walk around the garden
TTITLE5=Surrender
TTITLE6=If I ever fall in love again
TTITLE7=Half a moment
TTITLE8=Piano
TTITLE9=What more do I need?
TTITLE10=There is more to love
TTITLE11=The last man in my life 
TTITLE12=In the mandarin's orchid garden
TTITLE13=Nothing like you've ever known
TTITLE14=Chi il bel sogno di Doretta
EXTD=April 2002
EXTT0=show: Whistle down the wind, 1998
EXTT1=show: Rex, 1976
EXTT2=show: Sunset boulevard, 1993
EXTT3=show: Phantom of the opera, 1986
EXTT4=show: Carmeline, 1979
EXTT5=show: Sunset boulevard, 1993
EXTT6=show: The crooked mile, 1959
EXTT7=show: Jeeves, 1975
EXTT8=show: Cats, 1981
EXTT9=show: Saturday night, 1954
EXTT10=show: Aspects of love, 1989
EXTT11=show: Song and dance, 1982
EXTT12=show: East is west, 1929
EXTT13=show: Tell me on a Sunday, 1979\n             Song and dance, 1
EXTT13=982
EXTT14=show: La Rondine, 1917
PLAYORDER=
